<?xml version="1.0" encoding="UTF-8"?>
<svg width="512px" height="512px" viewBox="0 0 512 512" xmlns="http://www.w3.org/2000/svg" xmlns:xlink="http://www.w3.org/1999/xlink" version="1.1">
 <!-- Generated by Pixelmator Pro 2.0.5 -->
 <g id="noun_procedure_3147013">
  <path id="Path" d="M101.103 312.293 C86.672 312.293 74.645 324.319 74.645 338.751 74.645 349.334 80.899 358.955 91.001 363.284 94.368 364.727 97.736 365.208 101.103 365.208 104.47 365.208 108.319 364.727 111.205 363.284 120.826 358.955 127.561 349.334 127.561 338.751 127.561 324.319 115.534 312.293 101.103 312.293 Z M105.913 350.296 C103.027 351.739 99.66 351.739 96.774 350.296 92.444 348.372 89.077 344.042 89.077 339.232 89.077 332.497 94.368 327.206 101.103 327.206 107.838 327.206 113.129 332.497 113.129 339.232 113.129 344.042 110.243 348.372 105.913 350.296 Z" fill="#b40338" fill-opacity="1" stroke="none"/>
  <path id="Path-1" d="M476.8 131.42 L442.165 106.405 C438.798 104 434.468 104.962 432.063 107.848 429.658 111.216 430.62 115.545 433.506 117.95 L449.862 129.977 315.65 129.977 C312.282 115.064 299.294 104 283.42 104 267.545 104 254.557 115.064 251.19 129.977 L170.374 129.977 C138.625 129.977 112.648 155.953 112.648 187.702 112.648 219.451 138.625 245.428 170.374 245.428 L251.19 245.428 C254.557 260.34 267.545 271.404 283.42 271.404 299.294 271.404 312.282 260.34 315.65 245.428 L416.67 245.428 C440.722 245.428 459.964 264.669 459.964 288.722 459.964 312.774 440.722 332.016 416.67 332.016 L315.65 332.016 C312.282 317.104 299.294 306.04 283.42 306.04 267.545 306.04 254.557 317.104 251.19 332.016 L170.374 332.016 170.374 327.687 C170.374 323.838 167.006 320.471 163.158 320.471 L157.385 320.471 C156.423 318.066 155.461 315.66 154.499 313.255 L158.348 309.407 C161.234 306.521 161.234 302.191 158.348 299.305 L141.511 282.468 C138.625 279.582 134.295 279.582 131.409 282.468 L127.561 286.317 C125.155 285.355 122.75 284.392 120.345 283.43 L120.345 277.658 C120.345 273.809 116.978 270.442 113.129 270.442 L89.558 270.442 C85.71 270.442 82.342 273.809 82.342 277.658 L82.342 283.43 C79.937 284.392 77.532 285.355 75.127 286.317 L71.278 282.468 C68.392 279.582 64.062 279.582 61.176 282.468 L44.34 298.824 C41.453 301.71 41.453 306.04 44.34 308.926 L48.188 312.774 C47.226 315.179 45.783 317.585 45.302 319.99 L39.529 319.99 C35.681 319.99 32.313 323.357 32.313 327.206 L32.313 350.777 C32.313 354.625 35.681 357.993 39.529 357.993 L45.302 357.993 48.188 365.208 44.34 369.057 C41.453 371.943 41.453 376.272 44.34 379.159 L61.176 395.995 C64.062 398.881 68.873 398.881 71.278 395.995 L75.127 392.147 C77.532 393.109 79.937 394.071 82.342 395.033 L82.342 400.325 C82.342 404.173 85.71 407.54 89.558 407.54 L113.129 407.54 C116.978 407.54 120.345 404.173 120.345 400.325 L120.345 394.552 127.561 391.666 131.409 395.514 C132.852 396.957 134.776 397.438 136.7 397.438 138.625 397.438 140.549 396.476 141.992 395.514 L158.829 378.678 C161.715 375.791 161.715 371.462 158.829 368.576 L154.98 364.727 C155.942 362.322 156.904 359.917 157.867 357.511 L163.639 357.511 C167.487 357.511 170.855 354.144 170.855 350.296 L170.855 345.966 251.19 345.966 C254.557 360.879 267.545 371.943 283.42 371.943 299.294 371.943 312.282 360.879 315.65 345.966 L416.67 345.966 C448.419 345.966 474.395 319.99 474.395 288.241 474.395 256.492 448.419 230.515 416.67 230.515 L315.65 230.515 C312.282 215.603 299.294 204.539 283.42 204.539 267.545 204.539 254.557 215.603 251.19 230.515 L170.374 230.515 C146.321 230.515 127.08 211.273 127.08 187.221 127.08 163.169 146.321 143.927 170.374 143.927 L251.19 143.927 C254.557 158.839 267.545 169.903 283.42 169.903 299.294 169.903 312.282 158.839 315.65 143.927 L449.862 143.927 433.506 155.953 C430.139 158.358 429.658 162.688 432.063 166.055 433.506 167.979 435.911 168.941 437.836 168.941 439.279 168.941 440.722 168.46 442.165 167.498 L476.8 142.484 C478.725 141.041 479.687 139.116 479.687 136.711 479.687 134.306 478.725 132.863 476.8 131.42 Z M155.461 343.561 L151.613 343.561 C148.246 343.561 145.359 345.966 144.397 349.334 143.435 354.144 141.511 358.474 138.625 362.803 136.7 365.689 137.182 369.538 139.587 371.943 L142.473 374.829 136.219 381.083 133.333 378.197 C130.928 375.791 127.08 375.31 124.193 377.234 119.864 379.64 115.534 381.564 110.724 383.007 107.357 383.969 104.951 386.855 104.951 390.223 L104.951 394.071 95.812 394.071 95.812 390.223 C95.812 386.855 93.406 383.969 90.039 383.007 85.228 382.045 80.899 380.121 76.57 377.234 73.683 375.31 69.835 375.791 67.43 378.197 L64.543 381.083 58.29 374.829 62.138 371.462 C64.543 369.057 65.025 365.208 63.1 362.322 60.695 357.993 58.771 353.663 57.328 348.853 56.366 345.485 53.479 343.08 50.112 343.08 L46.745 343.08 46.745 333.94 50.593 333.94 C53.96 333.94 56.847 331.535 57.809 328.168 58.771 323.357 60.695 319.028 63.581 314.698 65.506 311.812 65.025 307.964 62.619 305.558 L59.733 302.672 65.987 296.419 68.873 299.305 C71.278 301.71 75.127 302.191 78.013 300.267 82.342 297.862 86.672 295.938 91.482 294.494 94.849 293.532 97.255 290.646 97.255 287.279 L97.255 283.43 106.395 283.43 106.395 287.279 C106.395 290.646 108.8 293.532 112.167 294.494 116.978 295.456 121.307 297.381 125.636 300.267 128.523 302.191 132.371 301.71 134.776 299.305 L137.663 296.419 143.916 302.672 141.03 305.558 C138.625 307.964 138.144 311.812 140.068 314.698 142.473 319.028 144.397 323.357 145.84 328.168 146.802 331.535 149.689 333.94 153.056 333.94 L156.904 333.94 156.904 343.561 Z M283.42 357.511 C273.318 357.511 264.659 349.334 264.659 338.751 264.659 328.168 272.837 319.99 283.42 319.99 294.003 319.99 302.18 328.168 302.18 338.751 302.18 349.334 294.003 357.511 283.42 357.511 Z M283.42 219.451 C293.522 219.451 302.18 227.629 302.18 238.212 302.18 248.795 294.003 256.973 283.42 256.973 272.837 256.973 264.659 248.795 264.659 238.212 264.659 227.629 273.318 219.451 283.42 219.451 Z M283.42 155.953 C273.318 155.953 264.659 147.775 264.659 137.192 264.659 127.09 272.837 118.431 283.42 118.431 294.003 118.431 302.18 126.609 302.18 137.192 302.18 147.775 294.003 155.953 283.42 155.953 Z" fill="#b40338" fill-opacity="1" stroke="none"/>
 </g>
</svg>
